<?xml version="1.0" encoding="UTF-8" standalone="no"?>
<!-- Created with Inkscape (http://www.inkscape.org/) -->

<svg
   version="1.1"
   id="svg1"
   width="600"
   height="680"
   viewBox="0 0 600 680"
   sodipodi:docname="Screenshot_20240201_161451.png"
   inkscape:export-filename="../../../../../Documents/zarhus.png"
   inkscape:export-xdpi="96"
   inkscape:export-ydpi="96"
   xmlns:inkscape="http://www.inkscape.org/namespaces/inkscape"
   xmlns:sodipodi="http://sodipodi.sourceforge.net/DTD/sodipodi-0.dtd"
   xmlns="http://www.w3.org/2000/svg"
   xmlns:svg="http://www.w3.org/2000/svg">
  <defs
     id="defs1" />
  <sodipodi:namedview
     id="namedview1"
     pagecolor="#ffffff"
     bordercolor="#000000"
     borderopacity="0.25"
     inkscape:showpageshadow="2"
     inkscape:pageopacity="0.0"
     inkscape:pagecheckerboard="0"
     inkscape:deskcolor="#d1d1d1"
     inkscape:zoom="0.86470588"
     inkscape:cx="197.7551"
     inkscape:cy="323.80952"
     inkscape:window-width="1536"
     inkscape:window-height="792"
     inkscape:window-x="0"
     inkscape:window-y="0"
     inkscape:window-maximized="1"
     inkscape:current-layer="g1" />
  <g
     inkscape:groupmode="layer"
     inkscape:label="Image"
     id="g1">
    <path
       style="fill:#000000"
       d="m 297.61201,653.62931 c -12.04911,-4.4786 -19.86503,-16.2312 -18.31501,-27.5398 0.91638,-6.6858 5.49021,-14.0804 10.87344,-17.5795 l 4.61539,-3 0.0543,-80.231 0.0543,-80.2309 2.25,-0.5641 c 1.2375,-0.3103 6.075,-0.4314 10.75,-0.2691 l 8.5,0.2951 0.25594,80.2155 0.25594,80.2154 4.91232,4.5949 c 6.46168,6.0442 9.21688,11.9894 9.26302,19.9881 0.042,7.2791 -1.95937,12.1916 -7.03456,17.2668 -6.58041,6.5804 -18.69682,9.7148 -26.43507,6.8386 z m -155.26439,-46.9454 c -12.34289,-4.7557 -18.67234,-15.1654 -17.19431,-28.2785 0.71538,-6.3467 5.29177,-13.2448 11.50939,-17.3482 l 5.23172,-3.4527 v -18.3207 -18.3207 l 8.13782,-8.4766 8.13782,-8.4765 h 25.30316 c 14.25387,0 25.55052,-0.4003 25.86961,-0.9166 0.31155,-0.5041 0.86041,-13.9953 1.21969,-29.9806 l 0.65324,-29.0641 10.58933,0.6198 c 5.82413,0.341 10.73419,0.7396 10.91125,0.8859 0.17705,0.1464 0.009,14.3712 -0.37286,31.6108 l -0.69478,31.3448 -9.18483,9.25 -9.18483,9.25 h -24.19231 -24.19231 v 16.6381 16.6382 l 4.07626,4.4222 c 5.3263,5.7784 7.23059,10.4522 7.25301,17.8015 0.0443,14.5261 -11.19184,25.6394 -25.705,25.4239 -2.81835,-0.042 -6.49533,-0.6043 -8.17107,-1.25 z m 308.0096,-0.2653 c -14.12086,-5.0137 -20.64492,-21.6235 -13.84958,-35.26 1.43728,-2.8842 4.13726,-6.4601 5.99997,-7.9463 l 3.38675,-2.7023 3e-5,-16.75 3e-5,-16.75 H 421.70211 397.5098 l -9.30769,-9.3077 -9.30769,-9.3077 0.004,-19.4423 c 0.002,-10.6933 0.29667,-25.1798 0.65432,-32.1923 l 0.65026,-12.75 4.09568,0.01 c 2.25263,0 7.12649,0.2933 10.8308,0.6432 l 6.73513,0.6361 0.26487,29.1068 0.26494,29.1069 25.21097,0.5 25.21096,0.5 8.03281,8.5 8.03282,8.5 0.006,18.5226 0.006,18.5226 3.57975,1.9278 c 10.38099,5.5905 15.67473,20.99 11.00962,32.027 -5.17225,12.2367 -20.13809,18.5203 -33.12657,13.9086 z M 219.8286,594.26001 c -7.59119,-3.8485 -11.45086,-10.1744 -11.39226,-18.6716 0.10182,-14.7664 11.69428,-24.08 26.59989,-21.3708 l 5.1541,0.9367 6.10205,-6.7604 6.10204,-6.7604 0.5,-48.5618 0.5,-48.5617 10.5,0.027 10.5,0.027 0.25856,54.1212 0.25857,54.1212 -4.37308,5.3522 c -2.40519,2.9437 -7.53161,8.1521 -11.39203,11.5742 -5.58043,4.9469 -7.16289,6.9893 -7.72122,9.9655 -2.70591,14.4237 -17.98232,21.4644 -31.59662,14.5624 z m 153.0957,1.6374 c -6.6055,-2.6363 -11.83079,-9.0075 -13.43993,-16.3874 -0.42974,-1.9709 -4.41655,-6.8684 -11.62204,-14.2769 l -10.96791,-11.2768 v -54.4141 c 0,-29.9278 0.34745,-54.6289 0.77211,-54.8914 0.42466,-0.2624 5.37466,-0.2236 11,0.086 l 10.22789,0.5636 v 48.4642 48.4642 l 6.25,6.4076 c 6.13942,6.2943 6.31181,6.3896 9.7434,5.3904 5.36806,-1.5631 9.03892,-1.2154 14.62363,1.3849 5.25759,2.4481 9.37953,6.8296 11.38526,12.1023 1.4608,3.8402 1.46457,12.1343 0.007,15.9956 -1.57471,4.1724 -6.75623,9.3947 -11.50957,11.6001 -4.32871,2.0085 -12.43891,2.3961 -16.47012,0.7873 z M 80.887951,491.07561 c -7.68527,-2.3377 -14.99409,-8.8818 -17.63082,-15.786 -2.40883,-6.3074 -1.46282,-16.7267 2.06528,-22.747 5.05825,-8.6312 15.6632,-13.5413 25.92384,-12.0026 6.195971,0.9292 14.151619,5.7625 17.289329,10.5039 l 2.64374,3.995 30.10755,-0.2645 30.10755,-0.2644 0.30226,-5.25 0.30226,-5.25 4.19774,0.01 c 2.30876,0 6.56024,0.2924 9.44774,0.6393 l 5.25,0.6306 v 9.6966 9.6967 l -6.90277,6.664 -6.90277,6.6638 h -33.54069 -33.5407 l -1.78556,3.0227 c -4.64409,7.8618 -18.168579,12.8309 -27.333979,10.0429 z m 436.338449,0.029 c -5.2696,-1.3452 -12.02843,-5.8676 -14.32651,-9.586 l -2.16859,-3.5088 h -33.19526 -33.19526 l -6.72318,-6.7751 -6.72318,-6.7751 v -9.6659 c 0,-5.8673 0.4262,-9.9293 1.0845,-10.3361 0.59647,-0.3687 4.84838,-0.3568 9.4487,0.027 l 8.3642,0.6967 0.3013,4.6645 0.3013,4.6645 28.77899,0.2654 28.779,0.2654 4.59153,-4.9846 c 6.24028,-6.7744 11.81088,-9.3439 20.21999,-9.3269 10.72333,0.022 18.53287,4.6109 23.45117,13.7807 2.81992,5.2575 2.95958,17.2716 0.26155,22.5 -2.47251,4.7913 -7.34915,9.7974 -11.75822,12.0702 -4.25472,2.1933 -12.90809,3.1949 -17.49203,2.0247 z m -345.33198,-73.0912 v -10.0036 h 8 8 v -10.7763 c 0,-37.6722 12.79649,-74.7277 37.94671,-109.88437 10.07147,-14.07858 22.96813,-29.15557 39.12466,-45.73911 l 14.71143,-15.10025 6.03436,5.75 c 3.3189,3.1625 6.24273,5.75 6.49741,5.75 0.25467,0 18.06308,-17.97179 39.57423,-39.9373 l 39.1112,-39.9373 0.12183,-18.8127 c 0.067,-10.34699 0.4045,-26.55429 0.75,-36.01624 l 0.62817,-17.203539 8.82329,5.89656 c 11.72686,7.83701 22.01427,17.178589 31.70975,28.794329 4.38183,5.24969 7.96696,9.84027 7.96696,10.20129 0,0.36103 -14.85,15.68816 -33,34.06029 l -33,33.40388 v 14.99551 14.99551 l -21,21.08301 -21,21.08302 v 14.95299 14.95302 l -30.25605,30.2438 c -16.64083,16.6341 -30.98014,30.2439 -31.86514,30.2439 -2.28011,0 -6.65488,3.6663 -8.39879,7.0386 -2.04921,3.9627 -1.85764,10.8299 0.40566,14.5414 2.12223,3.4802 7.51623,6.4218 11.76545,6.4162 7.14244,-0.01 13.62439,-7.4694 13.14108,-15.1241 l -0.29221,-4.6278 31.24658,-31.8722 31.24658,-31.8721 0.003,-14.52139 0.003,-14.52137 20.50332,-21.14632 20.50332,-21.14631 0.66118,-15.27577 0.66119,-15.27577 28.50786,-28.83243 c 15.67932,-15.85783 28.9928,-28.69722 29.5855,-28.53197 1.30619,0.36417 10.99495,19.46952 13.05908,25.7513 l 1.47865,4.5 -22.84415,23.47727 -22.84416,23.47728 -0.63072,9.52272 c -0.3469,5.2375 -0.63305,18.52481 -0.6359,29.52736 l -0.004,20.00463 -40.5,40.49077 -40.5,40.4907 v 4.9087 c 0,4.4849 -0.34343,5.2027 -3.97741,8.3132 -7.01842,6.0075 -7.83052,15.0357 -1.89828,21.1033 1.70517,1.7441 4.81972,3.6862 6.92122,4.3159 3.37728,1.0118 4.37412,0.8674 8.58572,-1.2435 6.45389,-3.235 8.75337,-6.6216 8.75337,-12.8921 0,-2.7564 -0.53654,-5.5481 -1.19231,-6.2039 -0.65577,-0.6558 -1.19231,-3.6373 -1.19231,-6.6257 v -5.4333 l 40.99017,-41.1167 40.99018,-41.11663 0.01,-28.3136 0.01,-28.31361 16.11413,-16.96229 c 8.86277,-9.32926 16.94388,-17.40636 17.95803,-17.94912 1.59102,-0.85149 1.98808,-0.45137 2.89523,2.91752 2.4568,9.12384 3.99602,25.53718 3.99696,42.6211 0.002,35.89367 -2.31586,47.27497 -20.42747,100.30513 -6.07509,17.7867 -12.53723,41.6307 -12.53723,46.2586 0,1.0649 -0.34517,1.9363 -0.76705,1.9363 -0.42188,0 -5.59688,-4.8449 -11.5,-10.7664 -10.0441,-10.0753 -10.73305,-11.022 -10.7345,-14.75 -0.005,-11.7944 -11.9936,-19.331 -21.0465,-13.2302 -6.7896,4.5755 -8.99726,12.5597 -5.24788,18.9796 2.26022,3.87 7.69425,7.767 10.8305,7.767 1.56123,0 6.70671,4.5305 17.00161,14.9695 l 14.76283,14.9696 11.60049,0.2804 11.6005,0.2805 v 9.5 9.5 l -133.75,0.2536 -133.75,0.2536 z M 440.22323,288.64595 c 1.79552,-0.75021 4.48106,-2.80974 5.96788,-4.57672 3.38019,-4.01713 3.76308,-11.80909 0.81763,-16.63929 -3.54779,-5.81797 -11.99687,-7.99312 -18.69743,-4.8135 -10.14563,4.81442 -9.77848,20.42613 0.60304,25.64199 4.19004,2.10514 6.97004,2.20041 11.30888,0.38752 z M 181.54649,247.25603 c -0.25878,-0.4187 -0.79317,-2.48128 -1.18755,-4.5835 -0.89508,-4.77117 -2.23083,-5.29911 -7.915,-3.12831 l -4.51391,1.72388 -6.26781,-4.02649 c -3.44729,-2.21457 -7.22319,-4.30984 -8.39088,-4.65616 -1.86971,-0.55453 -2.17807,-1.55135 -2.5838,-8.35258 -0.34891,-5.84894 -1.36626,-9.97669 -4.19266,-17.01121 l -3.73196,-9.28832 4.89197,-5.71168 c 19.48502,-22.74997 38.68089,-44.94984 44.71425,-51.71168 3.92597,-4.4 15.43191,-17.675 25.56876,-29.5 10.13684,-11.824999 20.79895,-24.083589 23.69357,-27.241309 2.89462,-3.15772 5.26295,-6.64317 5.26295,-7.74544 0,-1.10227 -3.308,-11.34368 -7.35111,-22.75869 -7.27217,-20.53167 -8.78962,-25.254549 -8.11425,-25.254549 0.19107,0 11.51144,5.194019 25.15638,11.542279 22.07275,10.26926 25.30529,12.0786 29.30898,16.40495 l 4.5,4.86267 9.5,0.59768 c 14.20597,0.89376 39.17538,7.58062 51.25,13.72486 l 3.75,1.9082 v 37.099839 37.09984 l -25.32856,25.75986 c -13.93071,14.16792 -26.86821,27.11188 -28.75,28.76435 l -3.42144,3.00448 v -7.63451 c 0,-7.15819 -1.97683,-17.13451 -3.39524,-17.13451 -0.34943,0 -1.46447,2.33453 -2.47788,5.18784 -2.60754,7.34169 -11.20168,15.75804 -19.13425,18.73842 -8.14942,3.06185 -17.27631,3.07569 -25.8774,0.0392 l -6.5496,-2.3122 -13.28281,8.07854 c -7.30555,4.44319 -13.83869,9.1337 -14.51808,10.42334 -0.67939,1.28965 -1.24189,4.63757 -1.25,7.43982 -0.0188,6.48423 -0.88284,7.2281 -13.51474,11.6345 -12.09609,4.21949 -15.2314,5.01411 -15.84793,4.01654 z m 65.10707,-99.24065 c 9.87717,-6.02218 9.44652,-20.01182 -0.77907,-25.30776 -4.17814,-2.1639 -10.10085,-1.72155 -13.89349,1.03767 -4.01318,2.91965 -7.29736,10.06515 -6.55627,14.26469 1.76884,10.0235 12.72776,15.18857 21.22883,10.0054 z"
       id="path1" />
  </g>
</svg>
